PathFileType	4	(X/Y/Z)	E:\Qualisys_Data\Carbon_Farble_Plate\Data\Amateur_Runner\S14\T2\S14T2V12_c3d.trc
DataRate	CameraRate	NumFrames	NumMarkers	Units	OrigDataRate	OrigDataStartFrame	OrigNumFrames
200.000000	200.000000	4	39	mm	200.000000	81	325
Frame#	Time	LSHO			RSHO			LICST			RICST			LASIS			LHEEL			RASIS			LTROC			RTROC			SACR			LTH1			LSK4			LTH2			LTH3			RHM5			LSK2			LTH4			RTH1			LTOE			RTH2			RTH3			RTH4			LLEP			RLEP			LSK1			LSK3			RSK1			LHM5			RSK2			LFT1			RSK3			RSK4			LLME			RLME			RTOE			RHEEL			RFT1			RFT2			LFT2			
		X1	Y1	Z1	X2	Y2	Z2	X3	Y3	Z3	X4	Y4	Z4	X5	Y5	Z5	X6	Y6	Z6	X7	Y7	Z7	X8	Y8	Z8	X9	Y9	Z9	X10	Y10	Z10	X11	Y11	Z11	X12	Y12	Z12	X13	Y13	Z13	X14	Y14	Z14	X15	Y15	Z15	X16	Y16	Z16	X17	Y17	Z17	X18	Y18	Z18	X19	Y19	Z19	X20	Y20	Z20	X21	Y21	Z21	X22	Y22	Z22	X23	Y23	Z23	X24	Y24	Z24	X25	Y25	Z25	X26	Y26	Z26	X27	Y27	Z27	X28	Y28	Z28	X29	Y29	Z29	X30	Y30	Z30	X31	Y31	Z31	X32	Y32	Z32	X33	Y33	Z33	X34	Y34	Z34	X35	Y35	Z35	X36	Y36	Z36	X37	Y37	Z37	X38	Y38	Z38	X39	Y39	Z39	

82	0.405	-1394.300415039062	1487.954711914062	-510.7047424316406	-1293.376098632812	1473.213500976562	-234.3862457275391	-1406.527587890625	1028.207153320312	-477.2471008300781	-1368.543334960938	1033.411254882812	-207.0168151855469	-1360.466674804688	978.3103637695312	-453.3269958496094	-1266.257202148438	107.345832824707	-354.4354858398438	-1349.120849609375	987.2542114257812	-223.7809906005859	-1479.094360351562	907.0934448242188	-498.1333618164062	-1508.8828125	930.4329223632812	-163.5350952148438	-1529.670288085938	1036.477172851562	-342.9879455566406	-1338.828247070312	694.9649047851562	-500.7721557617188	-1308.386840820312	324.1287841796875	-437.6392211914062	-1405.74951171875	671.3442993164062	-466.4561157226562	-1290.905395507812	612.5401611328125	-468.8563842773438	-1961.55712890625	212.3990783691406	-205.0349273681641	-1326.456787109375	421.4197387695312	-454.1182556152344	-1364.537475585938	585.7168579101562	-446.2168884277344	-1461.278686523438	687.856201171875	-173.4973602294922	-1022.800476074219	189.009033203125	-398.3714904785156	-1531.576049804688	716.6160278320312	-160.908447265625	-1495.808349609375	595.7310791015625	-195.3794555664062	-1574.1533203125	625.666259765625	-180.4429626464844	-1301.610107421875	531.4312744140625	-456.6354675292969	-1585.560668945312	551.7994384765625	-185.9760894775391	-1245.294067382812	436.4002685546875	-454.1966247558594	-1229.66357421875	336.9549865722656	-442.5730895996094	-1672.978637695312	462.9943237304688	-188.0836181640625	-1079.628662109375	137.3678588867188	-452.4354248046875	-1723.1240234375	533.023681640625	-191.9836883544922	-1244.4365234375	87.07064819335938	-332.3009338378906	-1760.13720703125	408.3653564453125	-204.1355895996094	-1799.871948242188	476.9883422851562	-208.6007385253906	-1225.49560546875	153.6394653320312	-421.2714233398438	-1925.029052734375	351.7433776855469	-232.5353393554688	-1924.222290039062	136.0449066162109	-256.6331176757812	-1950.063842773438	393.998291015625	-294.5209045410156	-1971.788940429688	371.1363830566406	-325.7756042480469	-1978.495727539062	387.9449768066406	-273.6598205566406	-1254.064086914062	75.44283294677734	-385.9221801757812
83	0.41	-1377.837158203125	1484.315673828125	-511.8304748535156	-1276.986083984375	1470.211059570312	-235.0887756347656	-1389.96630859375	1024.968017578125	-477.5446472167969	-1352.967651367188	1031.659912109375	-206.5588531494141	-1343.80126953125	975.1520385742188	-453.1987609863281	-1249.699829101562	103.7991027832031	-352.1911926269531	-1333.200805664062	984.9360961914062	-223.4496002197266	-1462.844482421875	903.1156005859376	-497.8390197753906	-1492.93359375	927.8080444335938	-163.3493347167969	-1512.842895507812	1033.676635742188	-342.7195434570312	-1324.537963867188	691.4041748046875	-500.7879333496094	-1292.7578125	320.7344665527344	-437.2981567382812	-1390.896606445312	668.083984375	-465.7574768066406	-1275.147094726562	609.18701171875	-467.9366455078125	-1948.503051757812	216.5210723876953	-204.7861938476562	-1310.438842773438	417.7269287109375	-453.2537536621094	-1349.785278320312	582.6396484375	-445.3252563476562	-1443.57080078125	684.7188720703125	-173.2061614990234	-1006.466552734375	187.5764617919922	-398.0895385742188	-1514.0	713.4268188476562	-160.3892974853516	-1477.502075195312	592.4237060546875	-193.6447143554688	-1555.69580078125	622.0877075195312	-179.903564453125	-1286.578369140625	528.4789428710938	-455.8927001953125	-1565.867309570312	548.1672973632812	-184.9552001953125	-1229.365112304688	433.3233337402344	-453.6966857910156	-1213.127807617188	333.6097106933594	-441.0362548828125	-1655.845581054688	461.2340087890625	-187.1323699951172	-1063.429565429688	135.3288879394531	-451.7293701171875	-1703.586669921875	532.2710571289062	-191.6383972167969	-1227.652587890625	83.488525390625	-330.6828308105469	-1743.904174804688	407.97265625	-203.6625671386719	-1781.708618164062	477.6133117675781	-208.6148529052734	-1207.150390625	149.4581298828125	-419.3836669921875	-1909.757934570312	355.2550659179688	-232.9911956787109	-1911.318969726562	139.8329162597656	-255.7635192871094	-1933.556030273438	397.6927490234375	-294.9658203125	-1956.165771484375	375.7921752929688	-326.6079406738281	-1962.972045898438	394.1817932128906	-276.265869140625	-1236.998168945312	72.0500717163086	-384.0469970703125
84	0.415	-1361.75732421875	1480.846557617188	-512.899658203125	-1260.916748046875	1466.984130859375	-235.6455993652344	-1373.525634765625	1021.688720703125	-477.6496887207031	-1336.762573242188	1028.9384765625	-206.5616760253906	-1328.062133789062	972.0863647460938	-453.0858154296875	-1233.786254882812	100.380859375	-350.5149841308594	-1317.217895507812	982.3037109375	-223.5549011230469	-1446.5087890625	899.3750610351562	-497.7038879394531	-1476.3681640625	924.88134765625	-162.935791015625	-1495.617065429688	1029.259155273438	-342.6590881347656	-1309.296508789062	687.6762084960938	-500.4553833007812	-1277.07763671875	317.1982421875	-436.939208984375	-1375.753295898438	664.8281860351562	-465.2962646484375	-1259.922119140625	606.0314331054688	-467.0950012207031	-1934.901977539062	221.7101898193359	-204.3949737548828	-1294.441772460938	414.0243835449219	-453.165771484375	-1334.024780273438	578.8997802734375	-444.5326843261719	-1425.526245117188	682.0131225585938	-173.1943511962891	-991.1102294921876	184.7542877197266	-397.2778015136719	-1496.532592773438	709.4728393554688	-160.6346740722656	-1458.395629882812	589.1798706054688	-193.60693359375	-1536.484375	617.8317260742188	-179.1506195068359	-1270.897827148438	525.4386596679688	-455.2041320800781	-1546.98779296875	543.8802490234375	-183.7343444824219	-1213.990356445312	429.62841796875	-452.7181091308594	-1197.91552734375	329.8811645507812	-441.2186889648438	-1637.6748046875	458.7151794433594	-187.0932464599609	-1048.079833984375	132.1149291992188	-450.7874755859375	-1683.944580078125	530.6117553710938	-191.2876892089844	-1211.427612304688	80.35061645507812	-328.8748168945312	-1726.858154296875	407.1722412109375	-203.4950408935547	-1762.7763671875	478.290283203125	-208.5912322998047	-1192.05419921875	145.9127197265625	-417.3740844726562	-1895.268188476562	358.9664306640625	-236.5653381347656	-1899.353759765625	143.4251556396484	-255.1039733886719	-1916.921264648438	401.4642944335938	-296.0000305175781	-1939.240966796875	379.862060546875	-327.324951171875	-1946.446411132812	398.0369567871094	-277.0366516113281	-1220.9912109375	68.14705657958984	-382.5727844238281
85	0.42	-1345.77001953125	1476.490844726562	-514.0336303710938	-1245.205688476562	1463.587158203125	-236.3018035888672	-1358.042358398438	1018.435791015625	-478.3497314453125	-1321.372192382812	1026.185668945312	-207.3478546142578	-1311.764282226562	968.8659057617188	-453.386474609375	-1219.21533203125	96.59441375732422	-350.0650329589844	-1301.18505859375	979.8909912109376	-224.0054931640625	-1430.044189453125	895.2568359375	-496.7805480957031	-1460.322265625	921.3980712890624	-163.1029968261719	-1479.08544921875	1025.527221679688	-342.5455322265625	-1294.540405273438	683.9428100585938	-499.7847900390625	-1260.9814453125	313.5506591796875	-435.9783935546875	-1360.080200195312	661.0945434570312	-464.2460327148438	-1244.446899414062	602.416015625	-466.1638793945312	-1920.816162109375	226.3976593017578	-204.5230560302734	-1279.17578125	410.7608947753906	-452.8528137207031	-1318.416625976562	575.22998046875	-444.0335388183594	-1407.765625	678.5098876953125	-172.3493804931641	-977.1371459960938	180.9993133544922	-396.3176574707031	-1478.568969726562	705.382080078125	-160.2984924316406	-1439.108032226562	585.64111328125	-192.7230987548828	-1517.893310546875	613.4009399414062	-178.9557647705078	-1255.214111328125	522.2990112304688	-454.587646484375	-1527.846069335938	539.6163940429688	-182.1935424804688	-1197.924926757812	425.6853637695312	-451.6367492675781	-1181.246704101562	326.3501281738281	-439.2174682617188	-1619.322265625	455.736328125	-186.1649780273438	-1033.808715820312	128.0733337402344	-449.4823303222656	-1664.050537109375	529.0932006835938	-190.8269653320312	-1197.1494140625	76.44475555419922	-327.8192138671875	-1708.349487304688	406.6422119140625	-202.3981018066406	-1743.159912109375	477.8291015625	-207.9869537353516	-1177.397583007812	141.7913970947266	-416.0807495117188	-1878.332153320312	361.6389465332031	-237.0222625732422	-1886.833740234375	147.0297546386719	-253.8588562011719	-1898.861450195312	404.6512756347656	-296.4255981445312	-1922.183959960938	383.4594116210938	-328.0648803710938	-1929.393310546875	402.0601196289062	-277.836669921875	-1205.173217773438	63.90689468383789	-380.5369262695312
